<svg width="91" height="91" viewBox="0 0 91 91" fill="none" xmlns="http://www.w3.org/2000/svg">
<path d="M39.6 38.9761H26.8V26.8H37.1043C38.48 26.8 39.6 25.68 39.6 24.3043V14H51.7761V26.8C51.7761 33.526 46.326 38.9761 39.6 38.9761ZM26.8 40.2239H14V52.4H24.3043C25.68 52.4 26.8 53.52 26.8 54.8957V65.2H38.9761V52.4C38.9761 45.674 33.526 40.2239 26.8 40.2239ZM67.6957 39.6C66.32 39.6 65.2 38.48 65.2 37.1043V26.8H53.0239V39.6C53.0239 46.326 58.474 51.7761 65.2 51.7761H78V39.6H67.6957ZM40.2239 65.2V78H52.4V67.6957C52.4 66.32 53.52 65.2 54.8957 65.2H65.2V53.0239H52.4C45.674 53.0239 40.2239 58.474 40.2239 65.2Z" fill="#F0529C"/>
</svg>
