<svg fill="none" height="310" viewBox="0 0 2703 310" width="2703" xmlns="http://www.w3.org/2000/svg"><g fill="#fff"><path clip-rule="evenodd" d="m625.989 249.708c6.965.001 12.466 1.914 16.501 5.74 4.041 3.83 6.061 8.876 6.061 15.139v37.579h-214.007v-20.885c.074-4.431.924-8.815 2.511-12.954 1.837-4.839 4.853-9.144 8.775-12.524l87.77-88.35c6.904-6.838 13.461-14.018 19.644-21.514 5.208-6.279 9.825-13.025 13.792-20.152 3.485-6.274 6.222-12.935 8.154-19.847 1.842-6.843 2.755-13.9026 2.714-20.989.002-12.1133-2.886-21.4052-8.665-27.8755-5.79-6.4751-14.602-9.7127-26.436-9.7127-9.614-.0015-17.733 2.5387-24.358 7.6207-4.235 3.1997-7.797 7.2022-10.482 11.7786-.013.0243-.027.0479-.042.0704-5.137 9.0593-14.445 14.9649-24.859 15.1566-13.866.255-32.638.6704-44.055 1.2084 2.287-14.5097 6.447-27.2515 12.566-38.1341 5.9-10.808 13.875-20.347 23.468-28.0708 9.594-7.7238 20.618-13.4807 32.441-16.94115 12.681-3.76427 25.851-5.627444 39.08-5.528677 15.043-.001739 28.591 2.189817 40.645 6.574677 12.05 4.38245 22.327 10.47565 30.831 18.27955 8.469 7.7563 15.137 17.271 19.535 27.8762 4.531 10.7943 6.797 22.6651 6.797 35.6123.098 10.4905-1.49 20.9285-4.704 30.9155-3.153 9.51-7.47 18.593-12.852 27.044-5.607 8.791-11.931 17.104-18.908 24.855-7.182 8.005-14.81 16.115-22.886 24.329 0 0-57.878 59.275-57.053 58.427 0 0 4.604-.585 9.898-1.322 2.646-.393 5.418-.804 8.404-1.235.424-.067.856-.135 1.272-.201.239-.038.473-.076.696-.113 4.617-.753 9.269-1.271 13.939-1.551 1.952-.145 3.863-.239 5.716-.269.193-.002.395-.016.597-.029.218-.014.436-.028.64-.028l44.451-.003c.028 0 .051.006.074.012.02.005.04.01.062.011zm-330.932-135.562c11.376-5.935 12.658-8.55 13.285-9.831.042-.086.081-.166.121-.241-4.291.209-8.092.466-16.173 2.301-18.778 4.286-37.268 9.747-55.361 16.351l-42.181-108.8909c-1.137-2.9365-3.137-5.4605-5.737-7.24047-2.599-1.77996-5.676-2.73268-8.827-2.73303h-61.611l-117.864016 304.3044v.001h60.879416c6.8647 0 14.0479-2.457 17.9579-8.055 34.7617-49.768 75.0477-88.935 112.4927-118.824l38.563 111.632c1.851 4.338 4.804 8.118 8.566 10.965 3.759 2.857 8.704 4.284 14.836 4.282h54.761l-63.855-164.835c20.031-12.898 37.409-22.543 50.147-29.186zm-178.979 72.6 27.276-77.826c2.094-5.297 4.324-11.5639 6.693-18.8011.574-1.7607 2.474-7.7876 5.011-15.8739l25.298 73.217c-22.375 11.477-43.861 24.608-64.278 39.284zm216.711-95.5002c-.001 1.0108.215 2.0102.634 2.9302.419.9199 1.032 1.7389 1.796 2.4011.764.6623 1.662 1.1524 2.633 1.4369s1.991.3568 2.992.212c7.121-1.0225 14.664-1.9576 22.202-2.808l-.057.1004c-8.335 1.0315-16.006 5.0726-21.568 11.3616s-8.632 14.394-8.632 22.787v178.5h71.065v-304.3054h-71.065z" fill-rule="evenodd"/><path d="m921.457 237.217h-16.951c-1.705.082-3.384-.438-4.744-1.47-1.214-.986-2.148-2.271-2.713-3.729l-15.142-39.101h-72.663l-15.142 39.101c-.503 1.429-1.405 2.684-2.598 3.616-1.343 1.076-3.026 1.638-4.747 1.583h-16.95l64.751-161.9443h22.148zm-45.653-60.121-25.425-65.885c-.755-1.958-1.546-4.238-2.374-6.838-.829-2.598-1.62-5.3666-2.373-8.3058-1.287 5.1858-2.911 10.2818-4.86 15.2568l-25.425 65.772z"/><path d="m956.44 70.7534v166.4636h-20.115v-166.4636z"/><path d="m1004.13 70.7534v166.4636h-20.118v-166.4636z"/><path d="m1124.99 221.169c-2.54 3.068-5.56 5.719-8.92 7.855-3.5 2.237-7.23 4.075-11.14 5.48-3.98 1.44-8.08 2.518-12.26 3.221-4.14.709-8.34 1.068-12.54 1.074-7.48.08-14.9-1.282-21.87-4.012-6.55-2.599-12.46-6.612-17.29-11.753-5.07-5.525-8.94-12.049-11.35-19.155-2.85-8.443-4.22-17.311-4.07-26.218-.06-7.614 1.18-15.182 3.67-22.377 2.29-6.653 5.88-12.782 10.57-18.025 4.69-5.152 10.43-9.237 16.84-11.979 7.07-2.988 14.69-4.47 22.37-4.351 6.51-.063 12.97 1.107 19.04 3.447 5.7 2.205 10.86 5.596 15.14 9.946 4.42 4.592 7.83 10.058 10.01 16.047 2.51 6.972 3.73 14.343 3.61 21.754.19 2.161-.16 4.336-1.02 6.329-.45.573-1.04 1.019-1.71 1.297-.67.277-1.41.375-2.13.285h-76.5c.09 6.402 1.1 12.757 2.99 18.872 1.53 4.921 4.05 9.478 7.4 13.393 3.09 3.524 6.96 6.272 11.31 8.023 4.67 1.828 9.66 2.731 14.69 2.656 4.41.088 8.81-.503 13.05-1.752 3.24-1.002 6.4-2.268 9.43-3.786 2.27-1.144 4.48-2.408 6.61-3.787 1.33-1.007 2.92-1.614 4.58-1.75.75-.032 1.5.127 2.17.463s1.25.838 1.67 1.457zm-16.27-53.68c.05-4.355-.62-8.689-1.98-12.826-1.22-3.709-3.18-7.13-5.76-10.058-2.55-2.84-5.69-5.079-9.21-6.555-5.87-2.256-12.24-2.88-18.44-1.805-6.2 1.074-11.99 3.807-16.76 7.908-5.98 6.402-9.66 14.613-10.45 23.336z"/><path d="m1166.33 139.35c2.43-2.732 5.07-5.264 7.91-7.571 2.75-2.237 5.72-4.188 8.87-5.821 3.16-1.631 6.5-2.882 9.95-3.73 3.71-.89 7.53-1.327 11.35-1.299 5.68-.111 11.31.947 16.56 3.108 4.63 1.959 8.73 4.979 11.98 8.815 3.32 4.041 5.8 8.711 7.28 13.731 1.72 5.756 2.56 11.737 2.49 17.743v72.891h-20.23v-72.891c.45-7.212-1.65-14.352-5.93-20.173-2.26-2.492-5.05-4.434-8.18-5.678-3.12-1.244-6.49-1.757-9.84-1.499-5.84-.03-11.58 1.449-16.67 4.295-5.39 3.046-10.22 6.981-14.3 11.64v84.306h-20.22v-114.48h12.09c1.25-.102 2.49.272 3.47 1.048.99.776 1.64 1.895 1.84 3.134z"/><path d="m1357.98 237.217h-21.92v-161.9443h21.92z"/><path d="m1408.52 139.35c2.43-2.732 5.07-5.264 7.91-7.571 2.75-2.237 5.72-4.188 8.87-5.821 3.16-1.631 6.49-2.882 9.94-3.73 3.72-.89 7.54-1.327 11.36-1.299 5.67-.111 11.31.947 16.55 3.108 4.63 1.959 8.74 4.979 11.98 8.815 3.33 4.041 5.81 8.711 7.29 13.731 1.72 5.756 2.56 11.737 2.49 17.743v72.891h-20.23v-72.891c.45-7.212-1.65-14.352-5.93-20.173-2.26-2.492-5.06-4.434-8.18-5.678-3.13-1.244-6.49-1.757-9.85-1.499-5.83-.03-11.57 1.449-16.66 4.295-5.39 3.046-10.22 6.981-14.3 11.64v84.306h-20.23v-114.48h12.09c1.25-.102 2.5.272 3.48 1.048.99.776 1.64 1.895 1.84 3.134z"/><path d="m1576.67 141.61c-.38.775-.98 1.423-1.72 1.864-.75.441-1.6.658-2.46.622-1.37-.072-2.7-.501-3.85-1.243-1.43-.827-3.18-1.75-5.25-2.769-2.39-1.137-4.86-2.082-7.4-2.825-3.31-.925-6.74-1.363-10.17-1.3-3.1-.041-6.19.397-9.16 1.3-2.51.763-4.86 1.969-6.95 3.56-1.83 1.407-3.34 3.201-4.4 5.255-1.02 2.013-1.55 4.241-1.53 6.497-.09 2.68.82 5.297 2.54 7.347 1.9 2.112 4.18 3.839 6.73 5.086 3.04 1.537 6.22 2.803 9.49 3.784 3.54 1.094 7.17 2.262 10.9 3.504 3.73 1.243 7.37 2.618 10.91 4.125 3.41 1.432 6.61 3.334 9.49 5.652 2.8 2.269 5.09 5.098 6.72 8.305 1.79 3.675 2.66 7.726 2.55 11.809.05 5.018-.91 9.995-2.83 14.635-1.87 4.463-4.73 8.444-8.36 11.641-3.97 3.439-8.58 6.069-13.56 7.741-5.97 1.981-12.24 2.937-18.53 2.825-7.42.104-14.78-1.22-21.7-3.899-6.05-2.335-11.63-5.721-16.5-10.001l4.75-7.686c.53-.907 1.27-1.68 2.14-2.26.96-.56 2.06-.835 3.17-.791 1.56.073 3.06.625 4.29 1.582 1.51 1.057 3.34 2.225 5.48 3.504 2.49 1.436 5.13 2.61 7.86 3.504 3.73 1.148 7.62 1.682 11.52 1.582 3.49.065 6.97-.45 10.29-1.526 2.69-.879 5.19-2.281 7.34-4.125 1.89-1.638 3.38-3.687 4.35-5.989.95-2.293 1.43-4.752 1.42-7.233.1-2.836-.8-5.619-2.55-7.854-1.86-2.204-4.14-4.011-6.72-5.312-3.06-1.577-6.25-2.863-9.55-3.842-3.58-1.091-7.23-2.24-10.96-3.447-3.73-1.204-7.38-2.578-10.96-4.124-3.45-1.465-6.67-3.426-9.55-5.821-2.82-2.379-5.11-5.324-6.72-8.646-1.8-3.911-2.67-8.184-2.55-12.487 0-4.346.92-8.642 2.71-12.601 1.84-4.07 4.54-7.695 7.92-10.622 3.75-3.219 8.08-5.693 12.76-7.29 5.57-1.892 11.42-2.81 17.29-2.712 6.93-.109 13.81 1.099 20.29 3.56 5.76 2.229 11.03 5.548 15.54 9.776z"/><path d="m1712.65 237.217h-20.11v-97.641h-58.99v68.71c-.16 1.933.07 3.877.67 5.72.61 1.843 1.57 3.548 2.84 5.016 1.18 1.169 2.6 2.083 4.15 2.686 1.56.602 3.22.881 4.89.817 1.86.04 3.71-.247 5.48-.847 1.39-.494 2.73-1.119 4.01-1.865 1.13-.678 2.09-1.3 2.88-1.865.59-.489 1.32-.785 2.09-.847.6.049 1.17.252 1.67.588.49.337.89.796 1.15 1.333l5.88 9.607c-3.64 3.345-7.9 5.937-12.54 7.627-4.84 1.835-9.97 2.773-15.14 2.769-3.81.25-7.63-.295-11.22-1.598-3.59-1.304-6.87-3.338-9.63-5.974-4.86-5.046-7.29-12.316-7.29-21.81v-70.067h-13.79c-1.11.033-2.2-.35-3.05-1.074-.44-.429-.78-.951-1-1.527-.21-.577-.29-1.194-.24-1.807v-8.023l18.76-2.487 4.63-35.2591c.19-1.0652.73-2.0378 1.52-2.7674.87-.7415 1.98-1.1257 3.11-1.0737h10.17v39.4392h79.1zm4.98-151.2072c.01 1.8919-.39 3.7635-1.19 5.4799-.77 1.6693-1.84 3.1825-3.16 4.4643-1.33 1.2876-2.88 2.3218-4.58 3.0516-1.75.7561-3.63 1.1414-5.54 1.1304-1.88.015-3.75-.3706-5.48-1.1304-3.36-1.4743-6.04-4.157-7.51-7.5159-.76-1.726-1.15-3.5939-1.13-5.4799-.01-1.9224.37-3.8261 1.13-5.5946.72-1.7211 1.75-3.2926 3.05-4.6339 1.27-1.3127 2.79-2.3679 4.46-3.1082 1.73-.7585 3.6-1.1431 5.48-1.1285 1.91-.0105 3.79.3738 5.54 1.1285 1.71.738 3.26 1.7926 4.58 3.1082 1.33 1.3371 2.4 2.908 3.16 4.6339.79 1.7593 1.19 3.6666 1.19 5.5946z"/><path d="m1775.92 239.025c-3.82.249-7.64-.295-11.22-1.598-3.59-1.304-6.87-3.338-9.63-5.974-4.86-5.046-7.29-12.316-7.29-21.81v-70.067h-13.79c-1.12.033-2.2-.35-3.05-1.074-.44-.429-.78-.951-1-1.527-.21-.577-.3-1.194-.24-1.807v-8.023l18.75-2.373 4.64-35.373c.19-1.0652.72-2.0378 1.52-2.7674.86-.7415 1.98-1.1256 3.11-1.0737h10.17v39.4401h33.11v14.578h-33.11v68.711c-.16 1.932.07 3.876.67 5.719.61 1.843 1.57 3.548 2.83 5.016 1.19 1.169 2.61 2.084 4.16 2.686 1.56.603 3.22.881 4.88.818 1.87.039 3.72-.248 5.49-.848 1.39-.494 2.73-1.119 4.01-1.865 1.13-.678 2.09-1.299 2.88-1.865.59-.489 1.32-.785 2.09-.847.6.049 1.17.252 1.66.589.5.336.9.795 1.16 1.332l5.88 9.607c-3.64 3.345-7.9 5.937-12.54 7.627-4.84 1.835-9.97 2.773-15.14 2.769z"/><path d="m1911.7 122.737v114.48h-11.98c-1.26.094-2.51-.281-3.51-1.053-1-.771-1.69-1.886-1.92-3.129l-1.58-12.318c-4.77 5.347-10.43 9.838-16.72 13.278-6.55 3.442-13.85 5.172-21.25 5.03-5.67.111-11.3-.947-16.55-3.108-4.63-1.958-8.75-4.955-12.04-8.758-3.36-3.995-5.84-8.654-7.28-13.674-1.68-5.762-2.5-11.741-2.43-17.743v-73.005h20.11v73.005c-.45 7.195 1.65 14.319 5.93 20.115 2.29 2.484 5.11 4.416 8.25 5.649 3.14 1.234 6.52 1.737 9.89 1.471 5.83.032 11.56-1.427 16.67-4.238 5.41-3.031 10.25-6.99 14.29-11.696v-84.306z"/><path d="m1973.96 239.025c-3.81.249-7.63-.295-11.22-1.598-3.59-1.304-6.87-3.338-9.63-5.974-4.86-5.046-7.29-12.316-7.29-21.81v-70.067h-13.78c-1.12.033-2.21-.35-3.05-1.074-.44-.429-.78-.951-1-1.527-.21-.577-.3-1.194-.25-1.807v-8.023l18.76-2.373 4.63-35.373c.19-1.0652.73-2.0378 1.53-2.7674.86-.7415 1.97-1.1256 3.11-1.0737h10.17v39.4401h33.11v14.578h-33.11v68.711c-.16 1.932.07 3.876.67 5.719s1.56 3.548 2.83 5.016c1.19 1.169 2.6 2.084 4.16 2.686 1.55.603 3.21.881 4.88.818 1.86.039 3.72-.248 5.48-.848 1.4-.494 2.74-1.119 4.01-1.865 1.13-.678 2.1-1.299 2.89-1.865.59-.489 1.32-.785 2.09-.847.59.049 1.17.252 1.66.589.5.336.9.795 1.16 1.332l5.88 9.607c-3.64 3.345-7.9 5.937-12.55 7.627-4.83 1.835-9.96 2.773-15.14 2.769z"/><path d="m2105.9 221.169c-2.54 3.068-5.56 5.719-8.92 7.855-3.5 2.237-7.23 4.075-11.14 5.48-3.98 1.44-8.08 2.518-12.26 3.221-4.14.709-8.33 1.068-12.54 1.074-7.48.08-14.9-1.282-21.87-4.012-6.55-2.599-12.46-6.612-17.29-11.753-5.07-5.525-8.94-12.049-11.35-19.155-2.85-8.443-4.22-17.311-4.07-26.218-.06-7.614 1.18-15.182 3.67-22.377 2.29-6.653 5.88-12.782 10.57-18.025 4.69-5.152 10.43-9.237 16.84-11.979 7.07-2.988 14.69-4.47 22.37-4.351 6.51-.063 12.97 1.107 19.04 3.447 5.7 2.205 10.86 5.596 15.14 9.946 4.42 4.592 7.83 10.058 10.01 16.047 2.51 6.972 3.73 14.343 3.61 21.754.19 2.161-.16 4.336-1.02 6.329-.45.573-1.04 1.019-1.71 1.297-.67.277-1.41.375-2.13.285h-76.5c.09 6.402 1.1 12.757 2.99 18.872 1.53 4.921 4.05 9.478 7.4 13.393 3.09 3.524 6.96 6.272 11.31 8.023 4.67 1.828 9.66 2.731 14.69 2.656 4.41.088 8.81-.503 13.05-1.752 3.24-1.002 6.4-2.268 9.43-3.786 2.27-1.144 4.48-2.408 6.61-3.787 1.33-1.007 2.92-1.614 4.58-1.75.75-.032 1.5.127 2.17.463s1.25.838 1.67 1.457zm-16.27-53.68c.05-4.355-.62-8.689-1.98-12.826-1.22-3.709-3.18-7.13-5.76-10.058-2.55-2.84-5.69-5.079-9.21-6.555-5.87-2.256-12.24-2.88-18.44-1.805-6.2 1.074-11.99 3.807-16.76 7.908-5.98 6.402-9.66 14.613-10.45 23.336z"/><path d="m2197.66 237.217v-97.302l-12.66-1.47c-1.41-.297-2.74-.895-3.89-1.752-.51-.41-.92-.937-1.19-1.537-.26-.599-.38-1.254-.34-1.908v-8.251h18.08v-11.074c-.1-5.937.84-11.846 2.77-17.4605 1.68-4.814 4.38-9.2085 7.91-12.8828 3.48-3.5399 7.71-6.2614 12.37-7.9678 5.22-1.8761 10.73-2.795 16.28-2.7125 4.8-.0514 9.57.713 14.12 2.2604l-.45 10.059c0 .3914-.07.7792-.22 1.1406s-.38.6888-.66.9628c-.27.274-.61.489-.97.6322-.37.1432-.75.2117-1.15.2013-1.84.1529-4.31.2283-7.4.2261-3.19-.0396-6.38.418-9.43 1.3562-2.75.8591-5.25 2.3715-7.29 4.4079-2.17 2.2681-3.78 5.0176-4.69 8.0241-1.19 3.995-1.74 8.152-1.64 12.318v10.51h33v14.578h-32.32v97.641z"/><path d="m2311.59 120.929c7.74-.117 15.42 1.304 22.6 4.181 6.52 2.66 12.38 6.71 17.18 11.866 4.89 5.369 8.6 11.702 10.9 18.591 5.05 15.863 5.05 32.901 0 48.764-2.31 6.868-6.02 13.18-10.9 18.534-4.79 5.152-10.66 9.184-17.18 11.809-7.19 2.84-14.87 4.242-22.6 4.125-7.79.12-15.52-1.282-22.77-4.125-6.55-2.615-12.43-6.648-17.23-11.809-4.89-5.354-8.6-11.666-10.91-18.534-5.05-15.863-5.05-32.902 0-48.764 2.3-6.89 6.02-13.222 10.91-18.591 4.81-5.166 10.69-9.216 17.23-11.866 7.24-2.88 14.98-4.301 22.77-4.181zm0 102.162c11.3 0 19.74-3.786 25.31-11.357 5.58-7.573 8.36-18.139 8.37-31.7 0-13.636-2.79-24.259-8.37-31.869-5.57-7.609-14.01-11.414-25.31-11.415-5.14-.117-10.25.886-14.97 2.939-4.19 1.903-7.84 4.816-10.62 8.476-3.01 4.068-5.16 8.7-6.33 13.618-1.47 5.971-2.17 12.104-2.09 18.251 0 13.561 2.8 24.128 8.42 31.7 5.61 7.57 14.14 11.356 25.59 11.357z"/><path d="m2406.13 145.679c3.02-7.035 7.58-13.308 13.33-18.365 5.43-4.464 12.3-6.813 19.32-6.611 2.34-.007 4.67.258 6.95.791 2.11.479 4.12 1.32 5.94 2.486l-1.47 15.031c-.11.812-.51 1.556-1.14 2.08s-1.44.791-2.25.745c-1.57-.07-3.12-.297-4.64-.678-2.26-.476-4.57-.703-6.89-.678-3.29-.055-6.56.481-9.66 1.582-2.81 1.046-5.39 2.64-7.57 4.691-2.37 2.251-4.39 4.841-5.99 7.683-1.91 3.338-3.51 6.836-4.8 10.455v72.326h-20.23v-114.48h11.52c1.61-.175 3.23.269 4.52 1.243 1 1.223 1.59 2.723 1.7 4.295z"/><path d="m2663.55 237.217h-16.95c-1.71.082-3.39-.438-4.75-1.47-1.21-.986-2.15-2.271-2.71-3.729l-15.14-39.101h-72.67l-15.14 39.101c-.5 1.429-1.4 2.684-2.6 3.616-1.34 1.076-3.02 1.638-4.74 1.583h-16.95l64.75-161.9443h22.15zm-45.66-60.121-25.42-65.885c-.76-1.958-1.55-4.238-2.37-6.838-.83-2.598-1.63-5.3666-2.38-8.3058-1.29 5.1858-2.91 10.2818-4.86 15.2568l-25.42 65.772z"/><path d="m2702.73 237.217h-21.92v-161.9443h21.92z"/></g></svg>