<svg width="283" height="91" viewBox="0 0 283 91" fill="none" xmlns="http://www.w3.org/2000/svg">
<path d="M32.6 38.9761H19.8V26.8H30.1043C31.48 26.8 32.6 25.68 32.6 24.3043V14H44.7761V26.8C44.7761 33.526 39.326 38.9761 32.6 38.9761ZM19.8 40.2239H7V52.4H17.3043C18.68 52.4 19.8 53.52 19.8 54.8957V65.2H31.9761V52.4C31.9761 45.674 26.526 40.2239 19.8 40.2239ZM60.6957 39.6C59.32 39.6 58.2 38.48 58.2 37.1043V26.8H46.0239V39.6C46.0239 46.326 51.474 51.7761 58.2 51.7761H71V39.6H60.6957ZM33.2239 65.2V78H45.4V67.6957C45.4 66.32 46.52 65.2 47.8957 65.2H58.2V53.0239H45.4C38.674 53.0239 33.2239 58.474 33.2239 65.2Z" fill="#F0529C"/>
<path d="M90.52 60V34.08H93.436L103.228 54.726L112.966 34.08H115.918V59.982H112.876V41.118L104.074 60H102.364L93.562 41.118V60H90.52ZM129.245 60.54C127.313 60.54 125.645 60.102 124.241 59.226C122.849 58.35 121.775 57.138 121.019 55.59C120.263 54.042 119.885 52.266 119.885 50.262C119.885 48.222 120.269 46.434 121.037 44.898C121.805 43.362 122.891 42.168 124.295 41.316C125.699 40.452 127.349 40.02 129.245 40.02C131.189 40.02 132.863 40.458 134.267 41.334C135.671 42.198 136.745 43.404 137.489 44.952C138.245 46.488 138.623 48.258 138.623 50.262C138.623 52.29 138.245 54.078 137.489 55.626C136.733 57.162 135.653 58.368 134.249 59.244C132.845 60.108 131.177 60.54 129.245 60.54ZM129.245 57.498C131.261 57.498 132.761 56.826 133.745 55.482C134.729 54.138 135.221 52.398 135.221 50.262C135.221 48.066 134.723 46.32 133.727 45.024C132.731 43.716 131.237 43.062 129.245 43.062C127.889 43.062 126.773 43.368 125.897 43.98C125.021 44.592 124.367 45.438 123.935 46.518C123.503 47.598 123.287 48.846 123.287 50.262C123.287 52.446 123.791 54.198 124.799 55.518C125.807 56.838 127.289 57.498 129.245 57.498ZM142.946 60V33.54H146.15V60H142.946ZM174.789 60L174.807 47.562C174.807 46.11 174.417 44.976 173.637 44.16C172.869 43.332 171.867 42.918 170.631 42.918C169.911 42.918 169.227 43.086 168.579 43.422C167.931 43.746 167.403 44.262 166.995 44.97C166.587 45.666 166.383 46.56 166.383 47.652L164.691 46.968C164.667 45.588 164.949 44.382 165.537 43.35C166.137 42.306 166.953 41.496 167.985 40.92C169.017 40.344 170.181 40.056 171.477 40.056C173.505 40.056 175.101 40.674 176.265 41.91C177.429 43.134 178.011 44.784 178.011 46.86L177.993 60H174.789ZM151.533 60V40.56H154.395V45.762H154.755V60H151.533ZM163.179 60L163.197 47.688C163.197 46.2 162.813 45.036 162.045 44.196C161.277 43.344 160.257 42.918 158.985 42.918C157.725 42.918 156.705 43.35 155.925 44.214C155.145 45.078 154.755 46.224 154.755 47.652L153.063 46.644C153.063 45.384 153.363 44.256 153.963 43.26C154.563 42.264 155.379 41.484 156.411 40.92C157.443 40.344 158.613 40.056 159.921 40.056C161.229 40.056 162.369 40.332 163.341 40.884C164.313 41.436 165.063 42.228 165.591 43.26C166.119 44.28 166.383 45.498 166.383 46.914L166.365 60H163.179ZM190.804 60.54C188.872 60.54 187.204 60.102 185.8 59.226C184.408 58.35 183.334 57.138 182.578 55.59C181.822 54.042 181.444 52.266 181.444 50.262C181.444 48.222 181.828 46.434 182.596 44.898C183.364 43.362 184.45 42.168 185.854 41.316C187.258 40.452 188.908 40.02 190.804 40.02C192.748 40.02 194.422 40.458 195.826 41.334C197.23 42.198 198.304 43.404 199.048 44.952C199.804 46.488 200.182 48.258 200.182 50.262C200.182 52.29 199.804 54.078 199.048 55.626C198.292 57.162 197.212 58.368 195.808 59.244C194.404 60.108 192.736 60.54 190.804 60.54ZM190.804 57.498C192.82 57.498 194.32 56.826 195.304 55.482C196.288 54.138 196.78 52.398 196.78 50.262C196.78 48.066 196.282 46.32 195.286 45.024C194.29 43.716 192.796 43.062 190.804 43.062C189.448 43.062 188.332 43.368 187.456 43.98C186.58 44.592 185.926 45.438 185.494 46.518C185.062 47.598 184.846 48.846 184.846 50.262C184.846 52.446 185.35 54.198 186.358 55.518C187.366 56.838 188.848 57.498 190.804 57.498ZM208.581 60L201.075 34.08H204.423L210.183 54.582L215.925 34.098L219.291 34.08L225.051 54.582L230.793 34.08H234.159L226.653 60H223.449L217.617 39.678L211.785 60H208.581ZM243.507 60.54C241.599 60.54 239.931 60.12 238.503 59.28C237.087 58.428 235.983 57.246 235.191 55.734C234.399 54.21 234.003 52.434 234.003 50.406C234.003 48.282 234.393 46.446 235.173 44.898C235.953 43.338 237.039 42.138 238.431 41.298C239.835 40.446 241.479 40.02 243.363 40.02C245.319 40.02 246.981 40.47 248.349 41.37C249.729 42.27 250.761 43.554 251.445 45.222C252.141 46.89 252.441 48.876 252.345 51.18H249.105V50.028C249.069 47.64 248.583 45.858 247.647 44.682C246.711 43.494 245.319 42.9 243.471 42.9C241.491 42.9 239.985 43.536 238.953 44.808C237.921 46.08 237.405 47.904 237.405 50.28C237.405 52.572 237.921 54.348 238.953 55.608C239.985 56.868 241.455 57.498 243.363 57.498C244.647 57.498 245.763 57.204 246.711 56.616C247.659 56.028 248.403 55.182 248.943 54.078L252.021 55.14C251.265 56.856 250.125 58.188 248.601 59.136C247.089 60.072 245.391 60.54 243.507 60.54ZM236.325 51.18V48.606H250.689V51.18H236.325ZM265.28 60.54C263.456 60.54 261.92 60.09 260.672 59.19C259.424 58.278 258.476 57.048 257.828 55.5C257.192 53.94 256.874 52.194 256.874 50.262C256.874 48.306 257.192 46.554 257.828 45.006C258.476 43.458 259.424 42.24 260.672 41.352C261.932 40.464 263.474 40.02 265.298 40.02C267.098 40.02 268.646 40.47 269.942 41.37C271.25 42.258 272.252 43.476 272.948 45.024C273.644 46.572 273.992 48.318 273.992 50.262C273.992 52.206 273.644 53.952 272.948 55.5C272.252 57.048 271.25 58.278 269.942 59.19C268.646 60.09 267.092 60.54 265.28 60.54ZM256.334 60V34.08H259.556V45.69H259.196V60H256.334ZM264.884 57.606C266.168 57.606 267.23 57.282 268.07 56.634C268.91 55.986 269.54 55.11 269.96 54.006C270.38 52.89 270.59 51.642 270.59 50.262C270.59 48.894 270.38 47.658 269.96 46.554C269.552 45.45 268.916 44.574 268.052 43.926C267.2 43.278 266.114 42.954 264.794 42.954C263.534 42.954 262.49 43.266 261.662 43.89C260.834 44.502 260.216 45.36 259.808 46.464C259.4 47.556 259.196 48.822 259.196 50.262C259.196 51.678 259.394 52.944 259.79 54.06C260.198 55.164 260.822 56.034 261.662 56.67C262.502 57.294 263.576 57.606 264.884 57.606Z" fill="#F0529C"/>
</svg>
